<svg xmlns="http://www.w3.org/2000/svg" xmlns:xlink="http://www.w3.org/1999/xlink" data-name="Layer 1" viewBox="0 0 80 80"><defs><linearGradient id="a" x1="40" x2="62.17" y1="-4482.54" y2="-4482.54" gradientTransform="matrix(1 0 0 -1 0 -4434.53)" gradientUnits="userSpaceOnUse"><stop offset="0" stop-color="#3ecdff"/><stop offset="1" stop-color="#fffcff"/></linearGradient><linearGradient xlink:href="#a" id="d" x2="80.57"/><linearGradient id="b" x1="20.91" x2="48" y1="-4490.54" y2="-4463.45" gradientTransform="matrix(1 0 0 -1 0 -4434.53)" gradientUnits="userSpaceOnUse"><stop offset="0" stop-color="#3ecdff"/><stop offset="1" stop-color="#bffcff"/></linearGradient><linearGradient xlink:href="#b" id="e" x1="13.05" x2="30.97" y1="-4494.07" y2="-4463.03"/><linearGradient xlink:href="#a" id="f" x1="55.36" x2="45.15" y1="-4440.73" y2="-4458.42"/><linearGradient xlink:href="#b" id="g" x1="34.85" x2="24.64" y1="-4458.42" y2="-4440.73"/><linearGradient xlink:href="#a" id="h" x1="68.06" x2="68.06" y1="-4440.84" y2="-4455.45"/><linearGradient xlink:href="#b" id="i" x1="-.57" x2="24.45" y1="-4448.14" y2="-4448.14"/><clipPath id="c"><path d="M69.1 7.07c-.4-.48-.99-.76-1.62-.76H12.52c-.63 0-1.22.28-1.62.76L.48 19.64a2.09 2.09 0 0 0-.06 2.6l37.9 50.61a2.11 2.11 0 0 0 3.37 0l37.9-50.61c.58-.78.56-1.85-.06-2.6L69.11 7.07Z" style="fill:none"/></clipPath></defs><g style="clip-path:url(#c)"><path d="M40 20.92V75.1l22.17-54.18H40z" style="fill:url(#a)"/><path d="m40 75.1 22.17-54.18h18.4L40 75.1z" style="fill:url(#d)"/><path d="M40 20.92H17.83L40 75.1V20.92z" style="fill:url(#b)"/><path d="M17.83 20.92 40 75.1-.57 20.92h18.4z" style="fill:url(#e)"/><path d="M40 6.31v14.61h22.17L55.55 6.31H40z" style="fill:url(#f)"/><path d="M40 6.31v14.61H17.83l6.62-14.61H40z" style="fill:url(#g)"/><path d="m55.55 6.31 6.62 14.61h18.4L68.47 6.31H55.55z" style="fill:url(#h)"/><path d="m24.45 6.31-6.62 14.61H-.57l12.1-14.61h12.92z" style="fill:url(#i)"/></g></svg>