<svg xmlns="http://www.w3.org/2000/svg" xmlns:xlink="http://www.w3.org/1999/xlink" data-name="Layer 1" viewBox="0 0 80 80"><defs><linearGradient id="a" x1="43.93" x2="69.1" y1="-4459.77" y2="-4445.24" gradientTransform="matrix(1 0 0 -1 0 -4434.53)" gradientUnits="userSpaceOnUse"><stop offset="0" stop-color="#dbb742"/><stop offset=".63" stop-color="#feeaa5"/></linearGradient><linearGradient xlink:href="#a" id="c" x1="-3014.86" x2="-2974.32" y1="-7880.25" y2="-7880.25" gradientTransform="scale(1 -1) rotate(-72 3922.96 -6076.917)"/><linearGradient xlink:href="#a" id="d" x1="1034.88" x2="1075.42" y1="-4453.02" y2="-4453.02" gradientTransform="rotate(-180 537.44 -2217.265)"/><linearGradient xlink:href="#a" id="e" x1="-2647.92" x2="-2651.28" y1="-11163.12" y2="-11195.06" gradientTransform="rotate(36 -18622.383 -1410.398)"/><linearGradient xlink:href="#a" id="f" x1="-2692.8" x2="-2684.67" y1="-6913.54" y2="-6951.74" gradientTransform="rotate(108 -3877.699 -2459.724)"/><linearGradient id="g" x1="24.65" x2="51.84" y1="-4502.94" y2="-4455.84" gradientTransform="matrix(1 0 0 -1 0 -4434.53)" gradientUnits="userSpaceOnUse"><stop offset="0" stop-color="#ffe8a7"/><stop offset=".63" stop-color="#fef5d8"/></linearGradient><clipPath id="b"><path d="M38.19 2.4 1.27 29.22a3.095 3.095 0 0 0-1.12 3.45l14.1 43.4c.41 1.27 1.6 2.13 2.93 2.13h45.63c1.34 0 2.52-.86 2.93-2.13l14.1-43.4c.41-1.27-.04-2.66-1.12-3.45L41.81 2.4a3.076 3.076 0 0 0-3.63 0Z" style="fill:none"/></clipPath></defs><g style="clip-path:url(#b)"><path d="M40 18.44V1.08l40.54 29.45-16.51 5.37L40 18.44z" style="fill:url(#a)"/><path d="m64.03 35.9 16.51-5.37-15.48 47.66-10.21-14.04 9.18-28.25z" style="fill:url(#c)"/><path d="M40 18.44V1.08L-.54 30.53l16.51 5.37L40 18.44z" style="fill:url(#d)"/><path d="M25.15 64.15 14.94 78.19h50.12L54.85 64.15h-29.7z" style="fill:url(#e)"/><path d="M15.97 35.9-.54 30.53l15.48 47.66 10.21-14.04-9.18-28.25z" style="fill:url(#f)"/><path d="m40 14.47-27.8 20.2 10.62 32.69h34.36L67.8 34.67 40 14.47z" style="fill:url(#g)"/></g></svg>