<svg xmlns="http://www.w3.org/2000/svg" xmlns:xlink="http://www.w3.org/1999/xlink" data-name="Layer 1" viewBox="0 0 80 80"><defs><linearGradient id="a" x1="15.54" x2="15.54" y1="-4444.95" y2="-4434.53" gradientTransform="matrix(1 0 0 -1 0 -4434.53)" gradientUnits="userSpaceOnUse"><stop offset="0" stop-color="#00c18e"/><stop offset="1" stop-color="#6bfe4a"/></linearGradient><linearGradient id="b" x1="4218.71" x2="4218.71" y1="-4434.53" y2="-4444.95" gradientTransform="rotate(-180 2141.59 -2217.265)" gradientUnits="userSpaceOnUse"><stop offset="0" stop-color="#fff"/><stop offset="1" stop-color="#47f959"/></linearGradient><linearGradient xlink:href="#a" id="d" x1="15.54" x2="15.54" y1="-8800.2" y2="-8810.62" gradientTransform="translate(0 8880.2)"/><linearGradient xlink:href="#a" id="e" x1="4218.71" x2="4218.71" y1="-8800.2" y2="-8810.62" gradientTransform="matrix(-1 0 0 1 4283.18 8880.2)"/><linearGradient xlink:href="#a" id="f" x1="32.93" x2="47.07" y1="-4451.98" y2="-4427.49"/><linearGradient xlink:href="#b" id="g" x1="15.54" x2="15.54" y1="-4504.11" gradientTransform="matrix(1 0 0 -1 0 -4434.53)"/><linearGradient xlink:href="#a" id="h" x1="50.35" x2="78.57" y1="-4450.09" y2="-4498.97"/><linearGradient xlink:href="#a" id="i" x1="47.07" x2="32.93" y1="-4521.56" y2="-4497.08"/><linearGradient id="j" x1="64.42" x2="15.58" y1="-4450.11" y2="-4498.95" gradientTransform="matrix(1 0 0 -1 0 -4434.53)" gradientUnits="userSpaceOnUse"><stop offset="0" stop-color="#f2f2f2"/><stop offset=".43" stop-color="#ccfff6"/><stop offset=".63" stop-color="#95fca4"/><stop offset=".81" stop-color="#6bfa65"/><stop offset=".93" stop-color="#50f93d"/><stop offset="1" stop-color="#47f92f"/></linearGradient><clipPath id="c"><path d="M58.42 0H21.58c-.53 0-1.04.21-1.42.59l-9.24 9.24c-.38.38-.59.89-.59 1.42v58.33l9.83 9.83c.38.38.89.59 1.42.59h36.85c.53 0 1.04-.21 1.42-.59l9.83-9.83V11.25c0-.53-.21-1.04-.59-1.42L59.84.59C59.46.21 58.95 0 58.42 0Z" style="fill:none"/></clipPath></defs><g style="clip-path:url(#c)"><path d="M10.33 10.42 20.75 0v10.42H10.33z" style="fill:url(#a)"/><path d="M69.67 10.42 59.25 0v10.42h10.42z" style="fill:url(#b)"/><path d="M10.33 69.58 20.75 80V69.58H10.33z" style="fill:url(#d)"/><path d="M69.67 69.58 59.25 80V69.58h10.42z" style="fill:url(#e)"/><path d="M20.75 0h38.51v10.42H20.75z" style="fill:url(#f)"/><path d="M10.33 10.42h10.42v59.17H10.33z" style="fill:url(#g)"/><path d="M59.25 10.42h10.42v59.17H59.25z" style="fill:url(#h)"/><path d="M20.75 69.58h38.51V80H20.75z" style="fill:url(#i)"/><path d="M20.75 10.42h38.51v59.17H20.75z" style="fill:url(#j)"/></g></svg>