<svg width="21" height="20" viewBox="0 0 21 20" fill="none" xmlns="http://www.w3.org/2000/svg">
<path d="M9.42438 17.3001L4.95771 19.4584C4.17438 19.8334 3.29105 19.1918 3.40771 18.3334L4.09104 13.3084C4.13271 12.9834 4.02438 12.6501 3.79938 12.4084L0.299378 8.75011C-0.300622 8.12511 0.0410447 7.08345 0.891045 6.93345L5.88271 6.03345C6.04406 6.00346 6.19665 5.93776 6.32931 5.84115C6.46197 5.74454 6.57133 5.61947 6.64938 5.47511L9.04938 1.00845C9.45771 0.250114 10.5494 0.250114 10.9577 1.00845L13.3577 5.47511C13.516 5.76678 13.7994 5.97511 14.1244 6.03345L19.116 6.93345C19.966 7.08345 20.3077 8.12511 19.7077 8.75011L16.1994 12.4084C16.0875 12.5277 16.0033 12.6702 15.9529 12.8258C15.9025 12.9814 15.8871 13.1462 15.9077 13.3084L16.591 18.3334C16.7077 19.1918 15.8244 19.8334 15.041 19.4584L10.5744 17.3001C10.216 17.1251 9.79105 17.1251 9.42438 17.3001Z" fill="#6FDDE7"/>
<path d="M4.99927 15V7.5H7.26593V15H4.99927ZM11.1243 15L8.3576 7.5H10.9326L12.5493 12.55L14.1659 7.5H16.7409L13.9743 15H11.1159H11.1243Z" fill="#0F212E"/>
</svg>
