<svg width="20" height="20" viewBox="0 0 20 20" fill="none" xmlns="http://www.w3.org/2000/svg">
<g clip-path="url(#clip0_399_2464)">
<path d="M9.42438 17.2999L4.95771 19.4582C4.17438 19.8332 3.29104 19.1915 3.40771 18.3332L4.09104 13.3082C4.13271 12.9832 4.02438 12.6499 3.79938 12.4082L0.299378 8.74987C-0.300622 8.12487 0.0410447 7.0832 0.891045 6.9332L5.88271 6.0332C6.04407 6.00326 6.19669 5.93758 6.32935 5.84096C6.46201 5.74435 6.57136 5.61926 6.64938 5.47487L9.04938 1.0082C9.45771 0.24987 10.5494 0.24987 10.9577 1.0082L13.3577 5.47487C13.516 5.76654 13.7994 5.97487 14.1244 6.0332L19.116 6.9332C19.966 7.0832 20.3077 8.12487 19.7077 8.74987L16.1994 12.4082C16.0875 12.5275 16.0034 12.67 15.953 12.8256C15.9025 12.9812 15.8871 13.146 15.9077 13.3082L16.591 18.3332C16.7077 19.1915 15.8244 19.8332 15.041 19.4582L10.5744 17.2999C10.216 17.1249 9.79104 17.1249 9.42438 17.2999Z" fill="#6FDDE7"/>
<path d="M8.86597 15V7.5H11.1326V15H8.86597Z" fill="#0F212E"/>
</g>
<defs>
<clipPath id="clip0_399_2464">
<rect width="20" height="20" fill="white"/>
</clipPath>
</defs>
</svg>
