<svg width="20" height="21" viewBox="0 0 20 21" fill="none" xmlns="http://www.w3.org/2000/svg">
<g clip-path="url(#clip0_399_2482)">
<path d="M9.42438 17.8001L4.95771 19.9585C4.17438 20.3335 3.29104 19.6918 3.40771 18.8334L4.09104 13.8084C4.13271 13.4834 4.02438 13.1501 3.79938 12.9084L0.299378 9.25011C-0.300622 8.62511 0.0410447 7.58345 0.891045 7.43345L5.88271 6.53345C6.04407 6.50351 6.19669 6.43782 6.32935 6.34121C6.46201 6.24459 6.57136 6.1195 6.64938 5.97511L9.04938 1.50845C9.45771 0.750114 10.5494 0.750114 10.9577 1.50845L13.3577 5.97511C13.516 6.26678 13.7994 6.47511 14.1244 6.53345L19.116 7.43345C19.966 7.58345 20.3077 8.62511 19.7077 9.25011L16.1994 12.9084C16.0875 13.0278 16.0034 13.1703 15.953 13.3259C15.9025 13.4814 15.8871 13.6462 15.9077 13.8084L16.591 18.8334C16.7077 19.6918 15.8244 20.3335 15.041 19.9585L10.5744 17.8001C10.216 17.6251 9.79104 17.6251 9.42438 17.8001Z" fill="#6FDDE7"/>
<mask id="mask0_399_2482" style="mask-type:alpha" maskUnits="userSpaceOnUse" x="5" y="7" width="10" height="10">
<rect x="5.55566" y="7.16675" width="8.88889" height="8.88889" fill="#D9D9D9"/>
</mask>
<g mask="url(#mask0_399_2482)">
<path d="M2.77783 15.5V8H5.0445V15.5H2.77783ZM8.90283 15.5L6.13617 8H8.71116L10.3278 13.05L11.9445 8H14.5195L11.7528 15.5H8.8945H8.90283Z" fill="#0F212E"/>
</g>
</g>
<defs>
<clipPath id="clip0_399_2482">
<rect width="20" height="20" fill="white" transform="translate(0 0.5)"/>
</clipPath>
</defs>
</svg>
