<svg width="20" height="20" viewBox="0 0 20 20" fill="none" xmlns="http://www.w3.org/2000/svg">
<g clip-path="url(#clip0_399_2474)">
<path d="M9.42438 17.3001L4.95771 19.4584C4.17438 19.8334 3.29104 19.1918 3.40771 18.3334L4.09104 13.3084C4.13271 12.9834 4.02438 12.6501 3.79938 12.4084L0.299378 8.75011C-0.300622 8.12511 0.0410447 7.08345 0.891045 6.93345L5.88271 6.03345C6.04407 6.00351 6.19669 5.93782 6.32935 5.84121C6.46201 5.74459 6.57136 5.6195 6.64938 5.47511L9.04938 1.00845C9.45771 0.250114 10.5494 0.250114 10.9577 1.00845L13.3577 5.47511C13.516 5.76678 13.7994 5.97511 14.1244 6.03345L19.116 6.93345C19.966 7.08345 20.3077 8.12511 19.7077 8.75011L16.1994 12.4084C16.0875 12.5278 16.0034 12.6703 15.953 12.8259C15.9025 12.9814 15.8871 13.1462 15.9077 13.3084L16.591 18.3334C16.7077 19.1918 15.8244 19.8334 15.041 19.4584L10.5744 17.3001C10.216 17.1251 9.79104 17.1251 9.42438 17.3001Z" fill="#6FDDE7"/>
<path d="M4.71582 15V7.5H6.98249V15H4.71582ZM8.86582 15V7.5H11.1325V15H8.86582ZM13.0158 15V7.5H15.2825V15H13.0158Z" fill="#0F212E"/>
</g>
<defs>
<clipPath id="clip0_399_2474">
<rect width="20" height="20" fill="white"/>
</clipPath>
</defs>
</svg>
