<svg xmlns="http://www.w3.org/2000/svg" xmlns:xlink="http://www.w3.org/1999/xlink" id="Layer_1" data-name="Layer 1" viewBox="0 0 80 80"><defs><linearGradient id="linear-gradient" x1="1.35" x2="78.65" y1="40" y2="40" gradientUnits="userSpaceOnUse"><stop offset="0" stop-color="#949ed4"/><stop offset="1" stop-color="#fff"/></linearGradient><linearGradient id="linear-gradient-2" x1="22.48" x2="57.52" y1="70.34" y2="9.66" gradientUnits="userSpaceOnUse"><stop offset="0" stop-color="#63727a"/><stop offset="1" stop-color="#fff"/></linearGradient><linearGradient xlink:href="#linear-gradient" id="linear-gradient-3" x1="26.9" x2="53.1" y1="62.69" y2="17.31"/><linearGradient xlink:href="#linear-gradient" id="linear-gradient-4" x1="48.1" x2="53.18" y1="15.95" y2="7.15"/><linearGradient xlink:href="#linear-gradient" id="linear-gradient-5" x1="65.22" x2="74.56" y1="37.72" y2="21.54"/><linearGradient xlink:href="#linear-gradient" id="linear-gradient-6" x1="61.72" x2="75.37" y1="61.55" y2="37.91"/><linearGradient xlink:href="#linear-gradient" id="linear-gradient-7" x1="43.72" x2="58.32" y1="82.6" y2="57.31"/><linearGradient xlink:href="#linear-gradient" id="linear-gradient-8" x1="26.82" x2="31.9" y1="72.85" y2="64.05"/><linearGradient xlink:href="#linear-gradient" id="linear-gradient-9" x1="5.44" x2="14.78" y1="58.46" y2="42.28"/><linearGradient xlink:href="#linear-gradient" id="linear-gradient-10" x1="4.63" x2="18.28" y1="42.09" y2="18.45"/><linearGradient xlink:href="#linear-gradient" id="linear-gradient-11" x1="21.68" x2="36.28" y1="22.69" y2="-2.6"/><clipPath id="clippath"><path d="M65.01 15.99 41.27.38c-.77-.5-1.76-.5-2.53 0L14.99 15.99c-.3.2-.55.46-.73.77L1.64 38.88c-.39.69-.39 1.54 0 2.23l12.62 22.12c.18.31.43.58.73.77l23.75 15.61c.77.5 1.76.5 2.53 0L65.02 64c.3-.2.55-.46.73-.77l12.62-22.12c.39-.69.39-1.54 0-2.23L65.75 16.76c-.18-.31-.43-.58-.73-.77Z" class="cls-10"/></clipPath><style>.cls-10{fill:url(#linear-gradient)}</style></defs><path d="M65.01 15.99 41.27.38c-.77-.5-1.76-.5-2.53 0L14.99 15.99c-.3.2-.55.46-.73.77L1.64 38.88c-.39.69-.39 1.54 0 2.23l12.62 22.12c.18.31.43.58.73.77l23.75 15.61c.77.5 1.76.5 2.53 0L65.02 64c.3-.2.55-.46.73-.77l12.62-22.12c.39-.69.39-1.54 0-2.23L65.75 16.76c-.18-.31-.43-.58-.73-.77Z" class="cls-10"/><g style="clip-path:url(#clippath)"><path d="M65.47 16.29 40-.45 14.53 16.29 1 40l13.53 23.71L40 80.45l25.47-16.74L79 40 65.47 16.29z" style="fill:url(#linear-gradient-2)"/><path d="M59.05 22.27 40 9.75 20.95 22.27 10.84 40l10.11 17.73L40 70.25l19.05-12.52L69.16 40 59.05 22.27z" style="fill:url(#linear-gradient-3)"/><path d="M40 9.75V-.45l25.47 16.74-6.42 5.98L40 9.75z" style="fill:url(#linear-gradient-4)"/><path d="m59.05 22.27 6.42-5.98L79 40h-9.84L59.05 22.27z" style="fill:url(#linear-gradient-5)"/><path d="M69.16 40 59.05 57.73l6.42 5.98L79 40h-9.84z" style="fill:url(#linear-gradient-6)"/><path d="M40 70.25v10.2l25.47-16.74-6.42-5.98L40 70.25z" style="fill:url(#linear-gradient-7)"/><path d="M40 70.25 20.95 57.73l-6.42 5.98L40 80.45v-10.2z" style="fill:url(#linear-gradient-8)"/><path d="m20.95 57.73-6.42 5.98L1 40h9.84l10.11 17.73z" style="fill:url(#linear-gradient-9)"/><path d="M1 40h9.84l10.11-17.73-6.42-5.98L1 40z" style="fill:url(#linear-gradient-10)"/><path d="m14.53 16.29 6.42 5.98L40 9.75V-.45L14.53 16.29z" style="fill:url(#linear-gradient-11)"/></g></svg>