<svg xmlns="http://www.w3.org/2000/svg" xmlns:xlink="http://www.w3.org/1999/xlink" data-name="Layer 1" viewBox="0 0 80 80"><defs><linearGradient id="c" x1="27.87" x2="52.13" y1="-4495.64" y2="-4453.63" gradientTransform="matrix(1 0 0 -1 0 -4434.53)" gradientUnits="userSpaceOnUse"><stop offset="0" stop-color="#ff9c9e"/><stop offset="1" stop-color="#fff"/></linearGradient><linearGradient id="a" x1="38.41" x2="61.4" y1="-4435.7" y2="-4458.69" gradientTransform="matrix(1 0 0 -1 0 -4434.53)" gradientUnits="userSpaceOnUse"><stop offset="0" stop-color="#ffb5b1"/><stop offset="1" stop-color="#ff242c"/></linearGradient><linearGradient xlink:href="#a" id="d" x1="55.17" x2="66.07" y1="40" y2="40"/><linearGradient xlink:href="#a" id="e" x1="40" x2="66.07" y1="68.47" y2="68.47"/><linearGradient xlink:href="#a" id="f" x1="13.93" x2="40" y1="68.47" y2="68.47"/><linearGradient xlink:href="#a" id="g" x1="13.93" x2="24.83" y1="40" y2="40"/><linearGradient xlink:href="#a" id="h" x1="13.93" x2="40" y1="11.64" y2="11.64"/><clipPath id="b"><path d="M39.02.33 14.57 19.01c-.4.31-.63.78-.63 1.28V59.7c0 .5.23.98.63 1.28l24.45 18.68c.58.44 1.38.44 1.96 0l24.45-18.68c.4-.31.63-.78.63-1.28V20.3c0-.5-.23-.98-.63-1.28L40.98.33a1.62 1.62 0 0 0-1.96 0Z" style="fill:none"/></clipPath></defs><g style="clip-path:url(#b)"><path d="M55.17 56.52 40 68.11 24.83 56.52V23.69L40 12.1l15.17 11.59v32.83z" style="fill:url(#c)"/><path d="M40 12.1V-.42L66.07 19.5l-10.9 4.19L40 12.1z" style="fill:url(#a)"/><path d="m55.17 23.69 10.9-4.19v41l-10.9-3.98V23.69z" style="fill:url(#d)"/><path d="m55.17 56.52 10.9 3.98L40 80.42V68.11l15.17-11.59z" style="fill:url(#e)"/><path d="M40 68.11 24.83 56.52l-10.9 3.98L40 80.42V68.11z" style="fill:url(#f)"/><path d="m24.83 56.52-10.9 3.98v-41l10.9 4.19v32.83z" style="fill:url(#g)"/><path d="m24.83 23.69-10.9-4.19L40-.42V12.1L24.83 23.69z" style="fill:url(#h)"/></g></svg>