<svg xmlns="http://www.w3.org/2000/svg" xmlns:xlink="http://www.w3.org/1999/xlink" data-name="Layer 1" viewBox="0 0 80 80"><defs><linearGradient id="c" x1="5.89" x2="74.11" y1="39.47" y2="39.47" gradientUnits="userSpaceOnUse"><stop offset="0" stop-color="#0c45ff"/><stop offset="1" stop-color="#a8e1ff"/></linearGradient><linearGradient id="d" x1="28.34" x2="54.23" y1="67.61" y2="22.76" gradientUnits="userSpaceOnUse"><stop offset="0" stop-color="#5f8bfd"/><stop offset=".54" stop-color="#d4f1fe"/><stop offset="1" stop-color="#fff"/></linearGradient><linearGradient id="a" x1="57.05" x2="57.05" y1="45.15" y2="-1.17" gradientUnits="userSpaceOnUse"><stop offset="0" stop-color="#4558ff"/><stop offset="1" stop-color="#d4f7ff"/></linearGradient><linearGradient id="e" x1="74.11" x2="55.08" y1="57.98" y2="57.98" gradientUnits="userSpaceOnUse"><stop offset="0" stop-color="#4558ff"/><stop offset="1" stop-color="#f0fcff"/></linearGradient><linearGradient xlink:href="#a" id="f" x1="54.1" x2="42.91" y1="79.44" y2="68.24"/><linearGradient id="g" x1="29.42" x2="29.42" y1="80.1" y2="65.64" gradientUnits="userSpaceOnUse"><stop offset="0" stop-color="#4558ff"/><stop offset="1" stop-color="#e6faff"/></linearGradient><linearGradient xlink:href="#a" id="h" x1="5.89" x2="24.92" y1="57.98" y2="57.98"/><linearGradient id="i" x1="5.89" x2="40" y1="21.99" y2="21.99" gradientUnits="userSpaceOnUse"><stop offset="0" stop-color="#4558ff"/><stop offset="1" stop-color="#e0f9ff"/></linearGradient><clipPath id="b"><path d="M38.73.67 6.39 42.87c-.31.45-.36 1.02-.14 1.52l12.31 27.38c.17.38.49.68.88.82l20.02 7.31c.34.13.72.13 1.06 0l20.02-7.31c.39-.14.71-.44.88-.82l12.31-27.38c.22-.5.17-1.07-.14-1.52L41.27.67c-.62-.89-1.93-.89-2.55 0Z" style="fill:none"/></clipPath></defs><g style="clip-path:url(#b)"><path d="M40-1.17 5.89 43.59l12.94 28.78L40 80.1l21.17-7.73 12.94-28.78L40-1.17z" style="fill:url(#c)"/><path d="M40 14.54 15.71 45.15l9.21 20.49L40 71.15l15.08-5.51 9.21-20.49L40 14.54z" style="fill:url(#d)"/><path d="M40 14.54V-1.17l34.11 44.76-9.82 1.56L40 14.54z" style="fill:url(#a)"/><path d="m64.29 45.15 9.82-1.56-12.94 28.78-6.09-6.73 9.21-20.49z" style="fill:url(#e)"/><path d="m55.08 65.64 6.09 6.73L40 80.1v-8.95l15.08-5.51z" style="fill:url(#f)"/><path d="m40 71.15-15.08-5.51-6.09 6.73L40 80.1v-8.95z" style="fill:url(#g)"/><path d="m24.92 65.64-9.21-20.49-9.82-1.56 12.94 28.78 6.09-6.73z" style="fill:url(#h)"/><path d="m5.89 43.59 9.82 1.56L40 14.54V-1.17L5.89 43.59z" style="fill:url(#i)"/></g></svg>