<svg width="20" height="20" viewBox="0 0 20 20" fill="none" xmlns="http://www.w3.org/2000/svg">
<g clip-path="url(#clip0_399_2458)">
<path d="M10.0496 1.4502C10.056 1.4539 10.0657 1.46089 10.0769 1.48145L12.4773 5.94824L12.4792 5.95215C12.7787 6.5036 13.3161 6.90309 13.947 7.0166V7.01758L18.9382 7.91699L18.9421 7.91797C18.966 7.92218 18.9758 7.92971 18.9812 7.93457C18.9892 7.94187 18.9985 7.95495 19.0046 7.97363C19.0108 7.99249 19.0107 8.00885 19.0085 8.01953L18.9861 8.05762L15.4773 11.7158L15.4695 11.7246C15.2571 11.9512 15.0975 12.2221 15.0017 12.5176C14.906 12.8131 14.8766 13.1264 14.9158 13.4346L14.9167 13.4434L15.6003 18.4678C15.6039 18.4938 15.5996 18.5066 15.5964 18.5137C15.5919 18.5238 15.5821 18.5372 15.5662 18.5488C15.5503 18.5603 15.5344 18.566 15.5222 18.5674C15.5137 18.5683 15.4994 18.5677 15.4753 18.5566L11.0095 16.3994C10.372 16.0895 9.62853 16.0946 8.9939 16.3975L8.98901 16.3994L4.52222 18.5566C4.49907 18.5671 4.48574 18.5683 4.47729 18.5674C4.46509 18.5661 4.44839 18.5605 4.43237 18.5488C4.41653 18.5372 4.40762 18.5238 4.40308 18.5137C4.39993 18.5067 4.3946 18.4942 4.39819 18.4678L5.08179 13.4434L5.08276 13.4355C5.16269 12.8121 4.95597 12.183 4.53101 11.7266L4.52222 11.7168L1.02222 8.05859L1.02124 8.05762L0.997803 8.01953C0.995668 8.00885 0.995578 7.99241 1.00171 7.97363C1.00789 7.95473 1.0181 7.94187 1.02612 7.93457C1.03151 7.92971 1.04131 7.92218 1.06519 7.91797L1.06812 7.91699L6.0603 7.01758L6.06519 7.0166C6.37322 6.95945 6.66445 6.83381 6.91772 6.64941C7.17106 6.46492 7.38008 6.22591 7.52905 5.9502L7.53003 5.94824L9.93042 1.48145L9.92944 1.48047C9.94067 1.46006 9.95137 1.45386 9.95776 1.4502C9.96738 1.44471 9.98343 1.43945 10.0037 1.43945C10.0238 1.43947 10.04 1.44472 10.0496 1.4502Z" stroke="#B2CCCC" stroke-width="2"/>
</g>
<defs>
<clipPath id="clip0_399_2458">
<rect width="20" height="20" fill="white"/>
</clipPath>
</defs>
</svg>
