<svg xmlns="http://www.w3.org/2000/svg" xmlns:xlink="http://www.w3.org/1999/xlink" data-name="Layer 1" viewBox="0 0 80 80"><defs><linearGradient id="a" x1="5.45" x2="81.09" y1="48.58" y2="28.41" gradientUnits="userSpaceOnUse"><stop offset="0" stop-color="#ffd8b5"/><stop offset="1" stop-color="#c45c3f"/></linearGradient><linearGradient xlink:href="#a" id="b" x1="-1745.21" x2="-1712.04" y1="-269.5" y2="-278.35" gradientTransform="rotate(.15 -128377.39 667989.316)"/><linearGradient id="c" x1="-1242.9" x2="-1231.16" y1="-62.85" y2="-81.85" gradientTransform="rotate(-31.71 -466.666 -2225.95)" gradientUnits="userSpaceOnUse"><stop offset="0" stop-color="#5c8677"/><stop offset="1" stop-color="#6bfe68"/></linearGradient><linearGradient xlink:href="#a" id="d" x1="12.85" x2="29.74" y1="68.6" y2="51.71"/></defs><path d="M76.2 36.88 36.83 76.19 4.1 43.51l17.79-17.76c.06-2.51-5.05-4.86-8.63-5.14-.14 0-.28-.01-.43-.03-1.02-.11-2.03.87-2.92-.03-.04-.04-.08-.09-.12-.13v-5.67c.33-.14.7-.21 1.09-.22.16.01.33.03.51.04h.05c6.27.4 19.58-1.52 23.84-2.17l8.2-8.19C46.31 1.38 50.3.18 54.66.46c5.63.35 11.88 3.23 16.98 8.32s7.98 11.33 8.33 16.95c.28 4.35-.93 8.33-3.76 11.16Z" style="fill:url(#a)"/><ellipse cx="20.46" cy="59.86" rx="16.67" ry="23.13" style="fill:url(#b)" transform="rotate(-45.15 20.46 59.864)"/><path d="M18.14 7.64c3.19 5.16 2.05 11.27-1.76 13.62-3.81 2.35-11.14.89-14.59-5.28C-1.17 10.69-.58-2.52 4.48.42c6.22 3.62 10.46 2.06 13.66 7.22Z" style="fill:url(#c)"/><path d="M32.58 70.86c-4.43 4.68-13.07 3.55-19.42-2.02-5.88-5.15-7.81-12.77-5.57-16.44 3.33-5.43 8.07-5.95 13.98-1.08.27.23 5.08 4.54 5.17 9.1.06 3.02-2.28 6.3-5.64 6.29-1.33 0-3.86-.55-6.26-4.19-1.29-1.96-1.7-3.56-1.21-4.78.84-2.09 3.99-1.89 4.36-1.86.81.07 1.62.8 1.79 1.62.18.82-.34 1.43-1.15 1.35-.61-.05-2.03.04-2.29.67-.21.5.38 1.52.74 2.08 1.48 2.27 2.63 2.25 3.01 2.24 1.77-.03 3.55-2.14 3.48-4.23-.1-2.93-3.61-6.12-3.64-6.15-4.22-3.5-7.22-3.14-9.9 1.04-1.72 2.67-.14 8.67 4.42 12.64 5.11 4.45 11.97 5.24 15.4 1.44 3.68-4.07 1.93-11.67-4.02-16.53-.77-.63-1.02-1.65-.56-2.29s1.5-.65 2.29 0c7.71 6.24 9.86 16.01 5.01 21.13Z" style="fill:url(#d)"/></svg>